<?xml version="1.0" encoding="utf-8"?>
<!-- Generator: Adobe Illustrator 26.0.2, SVG Export Plug-In . SVG Version: 6.00 Build 0)  -->
<svg version="1.1" id="Capa_1" xmlns="http://www.w3.org/2000/svg" xmlns:xlink="http://www.w3.org/1999/xlink" x="0px" y="0px"
	 viewBox="0 0 475.1 475.1" style="enable-background:new 0 0 475.1 475.1;" xml:space="preserve">
<style type="text/css">
	.st0{fill:#FFFFFF;}
</style>
<g>
	<g>
		<path class="st0" d="M201,64c-4.9,0-9.2,1.8-12.8,5.4l-95.1,95.1H18.3c-5,0-9.2,1.8-12.9,5.4c-3.6,3.6-5.4,7.9-5.4,12.8v109.6
			c0,4.9,1.8,9.2,5.4,12.8c3.6,3.6,7.9,5.4,12.9,5.4h74.8l95.1,95.1c3.6,3.6,7.9,5.4,12.8,5.4c5,0,9.2-1.8,12.9-5.4
			c3.6-3.6,5.4-7.9,5.4-12.8V82.2c0-4.9-1.8-9.2-5.4-12.8C210.2,65.8,206,64,201,64z"/>
	</g>
</g>
</svg>
