<?xml version="1.0" encoding="utf-8"?>
<!-- Generator: Adobe Illustrator 26.0.2, SVG Export Plug-In . SVG Version: 6.00 Build 0)  -->
<svg version="1.1" id="Слой_1" xmlns="http://www.w3.org/2000/svg" xmlns:xlink="http://www.w3.org/1999/xlink" x="0px" y="0px"
	 viewBox="0 0 32 32" style="enable-background:new 0 0 32 32;" xml:space="preserve">
<style type="text/css">
	.st0{fill:#FFFFFF;}
</style>
<g id="Layer_2">
	<path class="st0" d="M0.4,16.8l14,10c0.4,0.3,1.1,0.2,1.4-0.2c0.1-0.2,0.2-0.4,0.2-0.6v-6.6l10.4,7.4c0.5,0.3,1.1,0.2,1.4-0.2
		c0.1-0.2,0.2-0.4,0.2-0.6V6c0-0.4-0.2-0.7-0.5-0.9C27.3,5,27.2,5,27,5s-0.4,0.1-0.6,0.2L16,12.6V6c0-0.4-0.2-0.7-0.5-0.9
		C15.3,5,15.2,5,15,5s-0.4,0.1-0.6,0.2l-14,10c-0.4,0.3-0.5,0.9-0.2,1.4C0.3,16.7,0.3,16.7,0.4,16.8z"/>
</g>
</svg>
