<?xml version="1.0" encoding="utf-8"?>
<!-- Generator: Adobe Illustrator 26.0.2, SVG Export Plug-In . SVG Version: 6.00 Build 0)  -->
<svg version="1.1" id="blue_copy" xmlns="http://www.w3.org/2000/svg" xmlns:xlink="http://www.w3.org/1999/xlink" x="0px" y="0px"
	 viewBox="0 0 100 100" style="enable-background:new 0 0 100 100;" xml:space="preserve">
<style type="text/css">
	.st0{fill:#FFFFFF;stroke:#FFFFFF;stroke-miterlimit:10;}
</style>
<g id="Layer_7_copy">
	<path d="M37.7,73.1h-4.7c-1.1,0-2.1-1.8-2.1-3.9V31.4c0-2.2,0.9-3.9,2.1-3.9h4.7c1.1,0,2.1,1.8,2.1,3.9v37.8
		C39.8,71.3,38.9,73.1,37.7,73.1z"/>
	<path d="M58.4,73.1h-4.7c-1.2,0-2.1-1.8-2.1-3.9V31.3c0-2.2,0.9-3.9,2.1-3.9h4.7c1.2,0,2.1,1.8,2.1,3.9v37.8
		C60.5,71.3,59.6,73.1,58.4,73.1z"/>
	<path d="M38.1,27.5c0.4,0.7,0.6,1.7,0.6,2.9v37.8c0,2.2-0.9,3.9-2,3.9h-4.6c-0.1,0-0.2,0-0.4-0.1c0.4,0.7,0.8,1.1,1.4,1.1h4.6
		c1.1,0,2-1.8,2-3.9V31.4C39.8,29.4,39.1,27.8,38.1,27.5z"/>
	<path d="M58.8,27.5c0.4,0.7,0.7,1.7,0.7,2.9v37.8c0,2.2-0.9,3.9-2.1,3.9h-4.7c-0.1,0-0.2,0-0.4-0.1c0.4,0.7,0.9,1.1,1.4,1.1h4.7
		c1.2,0,2.1-1.8,2.1-3.9V31.3C60.5,29.4,59.8,27.8,58.8,27.5z"/>
	<path class="st0" d="M37.7,73.1h-4.7c-1.1,0-2.1-1.8-2.1-3.9V31.4c0-2.2,0.9-3.9,2.1-3.9h4.7c1.1,0,2.1,1.8,2.1,3.9v37.8
		C39.8,71.4,38.9,73.1,37.7,73.1z"/>
	<path class="st0" d="M58.4,73.1h-4.7c-1.2,0-2.1-1.8-2.1-3.9V31.3c0-2.2,0.9-3.9,2.1-3.9h4.7c1.2,0,2.1,1.8,2.1,3.9v37.8
		C60.5,71.3,59.6,73.1,58.4,73.1z"/>
</g>
</svg>
